<svg width="35" height="26" viewBox="0 0 35 26" fill="none" xmlns="http://www.w3.org/2000/svg">
<g clip-path="url(#clip0_2537_380)">
<path d="M7.95457 25.872V12.5474L3.76072 8.76686L0 6.66895V23.5206C0 24.8217 1.06982 25.872 2.38643 25.872H7.95457Z" fill="#112F4A"/>
<path d="M27.0454 25.872H32.6136C33.9341 25.872 35 24.8177 35 23.5206V6.66907L30.7404 9.07198L27.0454 12.5474V25.872Z" fill="#112F4A"/>
<path d="M7.95445 12.5473L7.38379 7.34101L7.95445 2.35803L17.4999 9.41225L27.0453 2.35803L27.6837 7.07198L27.0453 12.5473L17.4999 19.6016L7.95445 12.5473Z" fill="#112F4A"/>
<path d="M27.0454 2.35801V12.5473L35 6.66889V3.53367C35 0.625845 31.6312 -1.03182 29.2728 0.712062L27.0454 2.35801Z" fill="#112F4A"/>
<path d="M0 6.66883L3.65846 9.37256L7.95457 12.5473V2.35795L5.72715 0.712002C3.36465 -1.03202 0 0.625784 0 3.53347V6.6687V6.66883Z" fill="#112F4A"/>
</g>
<defs>
<clipPath id="clip0_2537_380">
<rect width="35" height="26" fill="white"/>
</clipPath>
</defs>
</svg>
