<svg width="32" height="32" viewBox="0 0 32 32" fill="none" xmlns="http://www.w3.org/2000/svg">
<path d="M32 16C32 7.16344 24.8366 0 16 0C7.16344 0 0 7.16344 0 16C0 24.8366 7.16344 32 16 32C24.8366 32 32 24.8366 32 16Z" fill="#112F4A"/>
<path d="M24.0244 10.5199C22.5565 9.34552 20.7951 8.75839 18.9357 8.66052L18.6421 8.95412C20.3057 9.34552 21.7737 10.1284 23.1437 11.2049C21.4801 10.3241 19.6207 9.73699 17.6635 9.54126C17.0764 9.44339 16.5871 9.44339 15.9999 9.44339C15.4128 9.44339 14.9235 9.44339 14.3363 9.54126C12.3791 9.73699 10.5198 10.3241 8.85619 11.2049C10.2262 10.1284 11.6941 9.34552 13.3577 8.95412L13.0641 8.66052C11.2048 8.75839 9.44332 9.34552 7.97545 10.5199C6.31185 13.6514 5.43111 17.1743 5.33325 20.7951C6.80112 22.3609 8.85619 23.3395 11.0091 23.3395C11.0091 23.3395 11.6941 22.5566 12.1834 21.8715C10.9113 21.578 9.73692 20.8929 8.95405 19.8165C9.63905 20.2079 10.3241 20.5994 11.0091 20.8929C11.8899 21.2844 12.7706 21.4801 13.6513 21.6759C14.4342 21.7737 15.2171 21.8715 15.9999 21.8715C16.7828 21.8715 17.5657 21.7737 18.3485 21.6759C19.2293 21.4801 20.11 21.2844 20.9907 20.8929C21.6758 20.5994 22.3608 20.2079 23.0458 19.8165C22.2629 20.8929 21.0886 21.578 19.8165 21.8715C20.3057 22.5566 20.9907 23.3395 20.9907 23.3395C23.1437 23.3395 25.1987 22.3609 26.6666 20.7951C26.5687 17.1743 25.688 13.6514 24.0244 10.5199ZM12.7706 19.0336C11.792 19.0336 10.9113 18.1529 10.9113 17.0765C10.9113 16 11.792 15.1193 12.7706 15.1193C13.7492 15.1193 14.6299 16 14.6299 17.0765C14.6299 18.1529 13.7492 19.0336 12.7706 19.0336ZM19.2293 19.0336C18.2507 19.0336 17.3699 18.1529 17.3699 17.0765C17.3699 16 18.2507 15.1193 19.2293 15.1193C20.2079 15.1193 21.0886 16 21.0886 17.0765C21.0886 18.1529 20.2079 19.0336 19.2293 19.0336Z" fill="white"/>
</svg>
