<?xml version="1.0" encoding="UTF-8"?>
<svg xmlns="http://www.w3.org/2000/svg" xmlns:xlink="http://www.w3.org/1999/xlink" width="32px" height="32px" viewBox="0 0 32 32" version="1.1">
<g id="surface1">
<path style=" stroke:none;fill-rule:evenodd;fill:rgb(10.588235%,12.156863%,13.72549%);fill-opacity:1;" d="M 16 0 C 7.160156 0 0 7.160156 0 16 C 0 23.078125 4.578125 29.058594 10.941406 31.179688 C 11.738281 31.320312 12.039062 30.839844 12.039062 30.421875 C 12.039062 30.039062 12.019531 28.78125 12.019531 27.441406 C 8 28.179688 6.960938 26.460938 6.640625 25.558594 C 6.460938 25.101562 5.679688 23.679688 5 23.300781 C 4.441406 23 3.640625 22.261719 4.980469 22.238281 C 6.238281 22.21875 7.140625 23.398438 7.441406 23.878906 C 8.878906 26.300781 11.179688 25.621094 12.101562 25.199219 C 12.238281 24.160156 12.660156 23.460938 13.121094 23.058594 C 9.558594 22.660156 5.839844 21.28125 5.839844 15.160156 C 5.839844 13.421875 6.460938 11.980469 7.480469 10.859375 C 7.320312 10.460938 6.761719 8.820312 7.640625 6.621094 C 7.640625 6.621094 8.980469 6.199219 12.039062 8.261719 C 13.320312 7.898438 14.679688 7.71875 16.039062 7.71875 C 17.398438 7.71875 18.761719 7.898438 20.039062 8.261719 C 23.101562 6.179688 24.441406 6.621094 24.441406 6.621094 C 25.320312 8.820312 24.761719 10.460938 24.601562 10.859375 C 25.621094 11.980469 26.238281 13.398438 26.238281 15.160156 C 26.238281 21.300781 22.5 22.660156 18.941406 23.058594 C 19.519531 23.558594 20.019531 24.519531 20.019531 26.019531 C 20.019531 28.160156 20 29.878906 20 30.421875 C 20 30.839844 20.300781 31.339844 21.101562 31.179688 C 27.421875 29.058594 32 23.058594 32 16 C 32 7.160156 24.839844 0 16 0 Z M 16 0 "/>
</g>
</svg>
