<svg width="222" height="24" viewBox="0 0 222 24" fill="none" xmlns="http://www.w3.org/2000/svg">
<path d="M9.248 10.288C9.248 10.8853 9.104 11.4453 8.816 11.968C8.53867 12.4907 8.096 12.912 7.488 13.232C6.89067 13.552 6.13333 13.712 5.216 13.712H3.344V18H1.104V6.832H5.216C6.08 6.832 6.816 6.98133 7.424 7.28C8.032 7.57867 8.48533 7.98933 8.784 8.512C9.09333 9.03467 9.248 9.62667 9.248 10.288ZM5.12 11.904C5.73867 11.904 6.19733 11.7653 6.496 11.488C6.79467 11.2 6.944 10.8 6.944 10.288C6.944 9.2 6.336 8.656 5.12 8.656H3.344V11.904H5.12ZM16.3744 18.144C15.521 18.144 14.753 17.9573 14.0704 17.584C13.3877 17.2 12.849 16.6613 12.4544 15.968C12.0704 15.2747 11.8784 14.4747 11.8784 13.568C11.8784 12.6613 12.0757 11.8613 12.4704 11.168C12.8757 10.4747 13.425 9.94133 14.1184 9.568C14.8117 9.184 15.585 8.992 16.4384 8.992C17.2917 8.992 18.065 9.184 18.7584 9.568C19.4517 9.94133 19.9957 10.4747 20.3904 11.168C20.7957 11.8613 20.9984 12.6613 20.9984 13.568C20.9984 14.4747 20.7904 15.2747 20.3744 15.968C19.969 16.6613 19.4144 17.2 18.7104 17.584C18.017 17.9573 17.2384 18.144 16.3744 18.144ZM16.3744 16.192C16.7797 16.192 17.1584 16.096 17.5104 15.904C17.873 15.7013 18.161 15.4027 18.3744 15.008C18.5877 14.6133 18.6944 14.1333 18.6944 13.568C18.6944 12.7253 18.4704 12.08 18.0224 11.632C17.585 11.1733 17.0464 10.944 16.4064 10.944C15.7664 10.944 15.2277 11.1733 14.7904 11.632C14.3637 12.08 14.1504 12.7253 14.1504 13.568C14.1504 14.4107 14.3584 15.0613 14.7744 15.52C15.201 15.968 15.7344 16.192 16.3744 16.192ZM36.5295 9.136L33.9375 18H31.5215L29.9055 11.808L28.2895 18H25.8575L23.2495 9.136H25.5215L27.0895 15.888L28.7855 9.136H31.1535L32.8175 15.872L34.3855 9.136H36.5295ZM47.5815 13.376C47.5815 13.696 47.5602 13.984 47.5175 14.24H41.0375C41.0908 14.88 41.3148 15.3813 41.7095 15.744C42.1042 16.1067 42.5895 16.288 43.1655 16.288C43.9975 16.288 44.5895 15.9307 44.9415 15.216H47.3575C47.1015 16.0693 46.6108 16.7733 45.8855 17.328C45.1602 17.872 44.2695 18.144 43.2135 18.144C42.3602 18.144 41.5922 17.9573 40.9095 17.584C40.2375 17.2 39.7095 16.6613 39.3255 15.968C38.9522 15.2747 38.7655 14.4747 38.7655 13.568C38.7655 12.6507 38.9522 11.8453 39.3255 11.152C39.6988 10.4587 40.2215 9.92533 40.8935 9.552C41.5655 9.17867 42.3388 8.992 43.2135 8.992C44.0562 8.992 44.8082 9.17333 45.4695 9.536C46.1415 9.89867 46.6588 10.416 47.0215 11.088C47.3948 11.7493 47.5815 12.512 47.5815 13.376ZM45.2615 12.736C45.2508 12.16 45.0428 11.7013 44.6375 11.36C44.2322 11.008 43.7362 10.832 43.1495 10.832C42.5948 10.832 42.1255 11.0027 41.7415 11.344C41.3682 11.6747 41.1388 12.1387 41.0535 12.736H45.2615ZM53.0565 10.512C53.3445 10.0427 53.7178 9.67467 54.1765 9.408C54.6458 9.14133 55.1792 9.008 55.7765 9.008V11.36H55.1845C54.4805 11.36 53.9472 11.5253 53.5845 11.856C53.2325 12.1867 53.0565 12.7627 53.0565 13.584V18H50.8165V9.136H53.0565V10.512ZM67.1253 13.376C67.1253 13.696 67.1039 13.984 67.0613 14.24H60.5813C60.6346 14.88 60.8586 15.3813 61.2533 15.744C61.6479 16.1067 62.1333 16.288 62.7093 16.288C63.5413 16.288 64.1333 15.9307 64.4853 15.216H66.9013C66.6453 16.0693 66.1546 16.7733 65.4293 17.328C64.7039 17.872 63.8133 18.144 62.7573 18.144C61.9039 18.144 61.1359 17.9573 60.4533 17.584C59.7813 17.2 59.2533 16.6613 58.8693 15.968C58.4959 15.2747 58.3092 14.4747 58.3092 13.568C58.3092 12.6507 58.4959 11.8453 58.8693 11.152C59.2426 10.4587 59.7653 9.92533 60.4373 9.552C61.1093 9.17867 61.8826 8.992 62.7573 8.992C63.5999 8.992 64.3519 9.17333 65.0133 9.536C65.6853 9.89867 66.2026 10.416 66.5653 11.088C66.9386 11.7493 67.1253 12.512 67.1253 13.376ZM64.8053 12.736C64.7946 12.16 64.5866 11.7013 64.1813 11.36C63.7759 11.008 63.2799 10.832 62.6933 10.832C62.1386 10.832 61.6693 11.0027 61.2853 11.344C60.9119 11.6747 60.6826 12.1387 60.5973 12.736H64.8053ZM69.7842 13.536C69.7842 12.64 69.9602 11.8453 70.3122 11.152C70.6749 10.4587 71.1656 9.92533 71.7842 9.552C72.4029 9.17867 73.0909 8.992 73.8482 8.992C74.4242 8.992 74.9736 9.12 75.4962 9.376C76.0189 9.62133 76.4349 9.952 76.7442 10.368V6.16H79.0162V18H76.7442V16.688C76.4669 17.1253 76.0776 17.4773 75.5762 17.744C75.0749 18.0107 74.4936 18.144 73.8322 18.144C73.0856 18.144 72.4029 17.952 71.7842 17.568C71.1656 17.184 70.6749 16.6453 70.3122 15.952C69.9602 15.248 69.7842 14.4427 69.7842 13.536ZM76.7602 13.568C76.7602 13.024 76.6536 12.56 76.4402 12.176C76.2269 11.7813 75.9389 11.4827 75.5762 11.28C75.2136 11.0667 74.8242 10.96 74.4082 10.96C73.9922 10.96 73.6082 11.0613 73.2562 11.264C72.9042 11.4667 72.6162 11.7653 72.3922 12.16C72.1789 12.544 72.0722 13.0027 72.0722 13.536C72.0722 14.0693 72.1789 14.5387 72.3922 14.944C72.6162 15.3387 72.9042 15.6427 73.2562 15.856C73.6189 16.0693 74.0029 16.176 74.4082 16.176C74.8242 16.176 75.2136 16.0747 75.5762 15.872C75.9389 15.6587 76.2269 15.36 76.4402 14.976C76.6536 14.5813 76.7602 14.112 76.7602 13.568ZM99.965 12.272C100.594 12.3893 101.112 12.704 101.517 13.216C101.922 13.728 102.125 14.3147 102.125 14.976C102.125 15.5733 101.976 16.1013 101.677 16.56C101.389 17.008 100.968 17.36 100.413 17.616C99.8583 17.872 99.2023 18 98.445 18H93.629V6.832H98.237C98.9943 6.832 99.645 6.95467 100.189 7.2C100.744 7.44533 101.16 7.78667 101.437 8.224C101.725 8.66133 101.869 9.15733 101.869 9.712C101.869 10.3627 101.693 10.9067 101.341 11.344C101 11.7813 100.541 12.0907 99.965 12.272ZM95.869 11.44H97.917C98.4503 11.44 98.861 11.3227 99.149 11.088C99.437 10.8427 99.581 10.496 99.581 10.048C99.581 9.6 99.437 9.25333 99.149 9.008C98.861 8.76267 98.4503 8.64 97.917 8.64H95.869V11.44ZM98.125 16.176C98.669 16.176 99.0903 16.048 99.389 15.792C99.6983 15.536 99.853 15.1733 99.853 14.704C99.853 14.224 99.693 13.8507 99.373 13.584C99.053 13.3067 98.621 13.168 98.077 13.168H95.869V16.176H98.125ZM113.99 9.136L108.502 22.192H106.118L108.038 17.776L104.486 9.136H106.998L109.286 15.328L111.606 9.136H113.99Z" fill="black"/>
<rect x="127" y="2" width="20" height="20" rx="4" fill="url(#paint0_linear_2537_362)"/>
<path d="M143.778 13.319V10.2874L130.221 5.19995V8.68319L138.75 11.7985L130.221 15.2911V18.7999L143.778 13.319Z" fill="white"/>
<path d="M142.946 10.7304C142.941 10.5642 143.041 10.4128 143.196 10.3521C143.457 10.2494 143.739 10.4456 143.734 10.7264L143.687 13.0387C143.685 13.1649 143.612 13.279 143.498 13.3342C143.279 13.4408 143.023 13.2858 143.016 13.0421L142.946 10.7304Z" fill="white"/>
<path d="M143.778 9.93628L130.221 15.2816V18.8L143.778 13.3194V9.93628Z" stroke="url(#paint1_linear_2537_362)" stroke-width="0.5"/>
<path d="M168.323 5.10484C166.796 3.72581 164.58 3 162.61 3C159.359 3 155.862 4.57258 155.862 8.37097C155.862 11.4677 158.103 12.5806 160.319 13.2823C162.61 14.0081 163.94 14.4194 163.94 15.7258C163.94 17.1048 162.807 17.5887 161.526 17.5887C160.147 17.5887 158.596 16.8145 157.758 15.7742L155 18.5323C156.527 20.1048 159.039 21 161.526 21C164.974 21 168.2 19.2339 168.2 15.2903C168.2 11.879 165.146 10.8871 162.782 10.1371C161.132 9.62903 160.098 9.26613 160.098 8.12903C160.098 6.77419 161.452 6.41129 162.536 6.41129C163.619 6.41129 164.925 6.99194 165.639 7.8871L168.323 5.10484ZM183.489 20.5645V3.43548H179.278V9.91935H172.481V3.43548H168.269V20.5645H172.481V13.4032H179.278V20.5645H183.489ZM199.537 3.43548H194.612L190.893 9.77419L187.175 3.43548H182.077L188.628 13.3065V20.5645H192.839V13.3065L199.537 3.43548ZM209.608 6.96774V3.43548H198.132V20.5645H202.294V13.9113H209.042V10.5H202.294V6.96774H209.608ZM222 6.96774V3.43548H207.938V6.96774H212.863V20.5645H217.075V6.96774H222Z" fill="#112F4A"/>
<defs>
<linearGradient id="paint0_linear_2537_362" x1="128.744" y1="3.74359" x2="144.641" y2="21.3333" gradientUnits="userSpaceOnUse">
<stop stop-color="#E0499B"/>
<stop offset="1" stop-color="#5965F3"/>
</linearGradient>
<linearGradient id="paint1_linear_2537_362" x1="128.758" y1="3.63848" x2="144.923" y2="22.3047" gradientUnits="userSpaceOnUse">
<stop stop-color="#E0499B"/>
<stop offset="1" stop-color="#5965F3"/>
</linearGradient>
</defs>
</svg>
