<svg width="38" height="38" viewBox="0 0 38 38" fill="none" xmlns="http://www.w3.org/2000/svg">
<path d="M11.3441 26.001C11.7345 26.3915 12.3677 26.3916 12.7583 26.0011C13.1488 25.6106 13.1489 24.9775 12.7584 24.5869L11.3441 26.001ZM9.17241 18.3452H8.17241L8.17241 18.3454L9.17241 18.3452ZM28.8276 18.3452L29.8276 18.3454V18.3452H28.8276ZM12.7584 24.5869C11.1031 22.9312 10.173 20.6861 10.1724 18.3449L8.17241 18.3454C8.17311 21.2168 9.31391 23.9704 11.3441 26.001L12.7584 24.5869ZM10.1724 18.3452C10.1724 13.5067 14.1615 9.51758 19 9.51758V7.51758C13.057 7.51758 8.17241 12.4021 8.17241 18.3452H10.1724ZM19 9.51758C23.8385 9.51758 27.8276 13.5067 27.8276 18.3452H29.8276C29.8276 12.4021 24.943 7.51758 19 7.51758V9.51758ZM27.8276 18.3449C27.827 20.6861 26.8969 22.9312 25.2416 24.5869L26.6559 26.001C28.6861 23.9704 29.8269 21.2168 29.8276 18.3454L27.8276 18.3449Z" fill="#112F4A"/>
<path d="M15.0496 22.295C15.44 22.6856 16.0732 22.6858 16.4638 22.2954C16.8544 21.905 16.8546 21.2718 16.4642 20.8812L15.0496 22.295ZM14.4138 18.345H13.4138V18.3452L14.4138 18.345ZM16.4642 20.8812C15.7918 20.2084 15.4139 19.2961 15.4138 18.3448L13.4138 18.3452C13.414 19.8265 14.0024 21.2472 15.0496 22.295L16.4642 20.8812ZM15.4138 18.345C15.4138 16.3814 17.0364 14.7588 19 14.7588V12.7588C15.9318 12.7588 13.4138 15.2768 13.4138 18.345H15.4138ZM19 14.7588C20.9636 14.7588 22.5862 16.3814 22.5862 18.345H24.5862C24.5862 15.2768 22.0681 12.7588 19 12.7588V14.7588ZM22.5862 18.345C22.5862 19.2959 22.208 20.209 21.536 20.881L22.9502 22.2952C23.9974 21.248 24.5862 19.8261 24.5862 18.345H22.5862Z" fill="#112F4A"/>
<path d="M7.63704 29.7071C8.02749 30.0977 8.66066 30.0978 9.05125 29.7073C9.44185 29.3169 9.44196 28.6837 9.0515 28.2931L7.63704 29.7071ZM3.93103 18.3444H2.93103V18.3445L3.93103 18.3444ZM9.0515 28.2931C6.41349 25.6542 4.93139 22.0756 4.93103 18.3443L2.93103 18.3445C2.93144 22.6061 4.62416 26.6931 7.63704 29.7071L9.0515 28.2931ZM4.93103 18.3444C4.93103 10.6297 11.2853 4.27539 19 4.27539V2.27539C10.1807 2.27539 2.93103 9.52511 2.93103 18.3444H4.93103ZM19 4.27539C26.7147 4.27539 33.069 10.6297 33.069 18.3444H35.069C35.069 9.52511 27.8192 2.27539 19 2.27539V4.27539ZM33.069 18.3444C33.069 22.0745 31.5861 25.6555 28.9486 28.293L30.3628 29.7072C33.3755 26.6945 35.069 22.6047 35.069 18.3444H33.069Z" fill="#112F4A"/>
<path d="M18.2929 23.3868C18.6834 22.9963 19.3166 22.9963 19.7071 23.3868L29.3376 33.0173C29.9675 33.6472 29.5214 34.7244 28.6305 34.7244H9.36952C8.47862 34.7244 8.03245 33.6472 8.66241 33.0173L18.2929 23.3868Z" fill="#112F4A"/>
</svg>
