<svg width="32" height="32" viewBox="0 0 32 32" fill="none" xmlns="http://www.w3.org/2000/svg">
<path d="M32 16C32 7.16344 24.8366 0 16 0C7.16344 0 0 7.16344 0 16C0 24.8366 7.16344 32 16 32C24.8366 32 32 24.8366 32 16Z" fill="white"/>
<path d="M24.0246 10.5195C22.5568 9.34516 20.7953 8.75802 18.936 8.66016L18.6424 8.95376C20.306 9.34516 21.7739 10.128 23.1439 11.2045C21.4803 10.3238 19.621 9.73662 17.6638 9.54089C17.0766 9.44302 16.5873 9.44302 16.0002 9.44302C15.413 9.44302 14.9237 9.44302 14.3366 9.54089C12.3794 9.73662 10.52 10.3238 8.85643 11.2045C10.2264 10.128 11.6944 9.34516 13.358 8.95376L13.0644 8.66016C11.205 8.75802 9.44356 9.34516 7.9757 10.5195C6.31209 13.651 5.43136 17.174 5.3335 20.7947C6.80136 22.3605 8.85643 23.3391 11.0094 23.3391C11.0094 23.3391 11.6944 22.5562 12.1836 21.8712C10.9115 21.5776 9.73716 20.8926 8.9543 19.8162C9.6393 20.2076 10.3243 20.599 11.0094 20.8926C11.8901 21.284 12.7708 21.4798 13.6516 21.6755C14.4344 21.7733 15.2173 21.8712 16.0002 21.8712C16.783 21.8712 17.5659 21.7733 18.3488 21.6755C19.2295 21.4798 20.1102 21.284 20.991 20.8926C21.676 20.599 22.361 20.2076 23.046 19.8162C22.2632 20.8926 21.0888 21.5776 19.8167 21.8712C20.306 22.5562 20.991 23.3391 20.991 23.3391C23.1439 23.3391 25.199 22.3605 26.6668 20.7947C26.569 17.174 25.6882 13.651 24.0246 10.5195ZM12.7708 19.0332C11.7922 19.0332 10.9115 18.1525 10.9115 17.0761C10.9115 15.9996 11.7922 15.1189 12.7708 15.1189C13.7494 15.1189 14.6302 15.9996 14.6302 17.0761C14.6302 18.1525 13.7494 19.0332 12.7708 19.0332ZM19.2295 19.0332C18.2509 19.0332 17.3702 18.1525 17.3702 17.0761C17.3702 15.9996 18.2509 15.1189 19.2295 15.1189C20.2081 15.1189 21.0888 15.9996 21.0888 17.0761C21.0888 18.1525 20.2081 19.0332 19.2295 19.0332Z" fill="#1C1C1C"/>
</svg>
