<svg width="32" height="32" viewBox="0 0 32 32" fill="none" xmlns="http://www.w3.org/2000/svg">
<g clip-path="url(#clip0_2443_19940)">
<path d="M3.99512 -0.00183105C1.802 -0.00183105 0 1.80017 0 3.99329V10.6579C0 12.851 1.802 14.666 3.99512 14.666H10.6701C12.8633 14.666 14.6653 12.851 14.6653 10.6579V3.99329C14.6653 1.80017 12.8633 -0.00183105 10.6701 -0.00183105H3.99512ZM21.3299 -0.00183105C19.1367 -0.00183105 17.3347 1.80017 17.3347 3.99329V10.6579C17.3347 12.851 19.1367 14.666 21.3299 14.666H28.0049C30.198 14.666 32 12.851 32 10.6579V3.99329C32 1.80017 30.198 -0.00183105 28.0049 -0.00183105H21.3299ZM3.99512 2.66505H10.6701C11.4319 2.66505 11.9984 3.23149 11.9984 3.99329V10.6579C11.9984 11.4197 11.4319 11.9965 10.6701 11.9965H3.99512C3.23333 11.9965 2.66688 11.4197 2.66688 10.6579V3.99329C2.66688 3.23149 3.23333 2.66505 3.99512 2.66505ZM21.3299 2.66505H28.0049C28.7667 2.66505 29.3331 3.23149 29.3331 3.99329V10.6579C29.3331 11.4197 28.7667 11.9965 28.0049 11.9965H21.3299C20.5681 11.9965 20.0016 11.4197 20.0016 10.6579V3.99329C20.0016 3.23149 20.5681 2.66505 21.3299 2.66505ZM3.99512 17.3329C1.802 17.3329 0 19.1349 0 21.328V28.0031C0 30.1962 1.802 31.9982 3.99512 31.9982H10.6701C12.8633 31.9982 14.6653 30.1962 14.6653 28.0031V21.328C14.6653 19.1349 12.8633 17.3329 10.6701 17.3329H3.99512ZM21.3299 17.3329C19.1367 17.3329 17.3347 19.1349 17.3347 21.328V28.0031C17.3347 30.1962 19.1367 31.9982 21.3299 31.9982H28.0049C30.198 31.9982 32 30.1962 32 28.0031V21.328C32 19.1349 30.198 17.3329 28.0049 17.3329H21.3299ZM3.99512 19.9998H10.6701C11.4319 19.9998 11.9984 20.5662 11.9984 21.328V28.0031C11.9984 28.7648 11.4319 29.3313 10.6701 29.3313H3.99512C3.23333 29.3313 2.66688 28.7648 2.66688 28.0031V21.328C2.66688 20.5662 3.23333 19.9998 3.99512 19.9998ZM21.3299 19.9998H28.0049C28.7667 19.9998 29.3331 20.5662 29.3331 21.328V28.0031C29.3331 28.7648 28.7667 29.3313 28.0049 29.3313H21.3299C20.5681 29.3313 20.0016 28.7648 20.0016 28.0031V21.328C20.0016 20.5662 20.5681 19.9998 21.3299 19.9998Z" fill="url(#paint0_linear_2443_19940)"/>
</g>
<defs>
<linearGradient id="paint0_linear_2443_19940" x1="-2" y1="0.00012251" x2="31" y2="34.0001" gradientUnits="userSpaceOnUse">
<stop stop-color="#E0499B"/>
<stop offset="1" stop-color="#5965F3"/>
</linearGradient>
<clipPath id="clip0_2443_19940">
<rect width="32" height="32" fill="white"/>
</clipPath>
</defs>
</svg>
