<svg width="32" height="32" viewBox="0 0 32 32" fill="none" xmlns="http://www.w3.org/2000/svg">
<g clip-path="url(#clip0_3155_21764)">
<path d="M17.4668 1.33334C14.2425 1.34903 11.1144 2.4339 8.57272 4.41797C6.03104 6.40204 4.21934 9.17322 3.42147 12.2973L2.44547 10.8213C2.35307 10.6668 2.23034 10.5326 2.08466 10.4268C1.93899 10.321 1.77339 10.2458 1.59786 10.2057C1.42233 10.1656 1.2405 10.1615 1.06335 10.1936C0.886186 10.2257 0.717364 10.2934 0.56706 10.3925C0.416756 10.4916 0.288084 10.6202 0.188803 10.7704C0.0895225 10.9206 0.0216902 11.0893 -0.0106035 11.2664C-0.0428972 11.4436 -0.0389832 11.6254 0.000902626 11.801C0.0407884 11.9765 0.11582 12.1422 0.221471 12.288L3.1548 16.7333C3.35856 17.0185 3.65898 17.2198 4.00014 17.3C4.34849 17.3691 4.71007 17.2998 5.00814 17.1067L9.40814 14.1427C9.55984 14.0479 9.69094 13.9236 9.79362 13.7772C9.8963 13.6307 9.96847 13.4651 10.0058 13.2902C10.0432 13.1153 10.045 12.9347 10.0111 12.7591C9.97717 12.5834 9.90829 12.4164 9.80852 12.268C9.70875 12.1195 9.58013 11.9927 9.43033 11.895C9.28052 11.7973 9.11258 11.7307 8.93652 11.6992C8.76045 11.6677 8.57985 11.672 8.40547 11.7118C8.23109 11.7515 8.06649 11.826 7.92147 11.9307L5.92014 13.28C6.45278 11.1179 7.58244 9.14896 9.18025 7.59796C10.7781 6.04695 12.7796 4.9763 14.9567 4.50815C17.1337 4.04 19.3985 4.19321 21.4926 4.9503C23.5867 5.70739 25.4259 7.03786 26.8003 8.78993C28.1746 10.542 29.0288 12.6451 29.2654 14.8593C29.502 17.0735 29.1114 19.3096 28.1383 21.3125C27.1652 23.3154 25.6487 25.0044 23.7618 26.1869C21.8749 27.3693 19.6936 27.9976 17.4668 28C15.5579 27.9948 13.6785 27.5289 11.9883 26.6416C10.2982 25.7544 8.8472 24.4722 7.7588 22.904C7.66133 22.7543 7.53477 22.6258 7.38664 22.5259C7.23851 22.4261 7.07184 22.3571 6.89651 22.3229C6.72119 22.2887 6.54079 22.2902 6.36602 22.3271C6.19125 22.364 6.02568 22.4356 5.87913 22.5377C5.73259 22.6399 5.60806 22.7704 5.51294 22.9216C5.41783 23.0728 5.35406 23.2416 5.32542 23.4179C5.29679 23.5942 5.30387 23.7745 5.34625 23.948C5.38863 24.1215 5.46545 24.2847 5.57214 24.428C7.34156 26.9789 9.88258 28.8949 12.8218 29.8945C15.7609 30.8941 18.9432 30.9245 21.901 29.9813C24.8587 29.038 27.4359 27.1709 29.2537 24.6543C31.0715 22.1377 32.0342 19.1043 32.0001 16C32.0133 12.1292 30.4905 8.41126 27.766 5.66172C25.0414 2.91217 21.3375 1.35556 17.4668 1.33334V1.33334Z" fill="#112F4A"/>
<path d="M17.3333 7.93333C16.9797 7.93333 16.6406 8.07381 16.3905 8.32386C16.1405 8.57391 16 8.91305 16 9.26667V16C16.0001 16.3536 16.1406 16.6927 16.3907 16.9427L20.3907 20.9787C20.5123 21.1094 20.6591 21.2144 20.8221 21.2874C20.9851 21.3604 21.1612 21.3999 21.3397 21.4035C21.5183 21.4071 21.6958 21.3748 21.8617 21.3085C22.0276 21.2422 22.1784 21.1433 22.3053 21.0176C22.4322 20.8918 22.5325 20.7419 22.6003 20.5767C22.6681 20.4114 22.7021 20.2342 22.7001 20.0556C22.6981 19.877 22.6602 19.7006 22.5888 19.5369C22.5173 19.3732 22.4136 19.2255 22.284 19.1027L18.6667 15.452V9.26667C18.6667 8.91305 18.5262 8.57391 18.2761 8.32386C18.0261 8.07381 17.687 7.93333 17.3333 7.93333Z" fill="#112F4A"/>
</g>
<defs>
<clipPath id="clip0_3155_21764">
<rect width="32" height="32" fill="white"/>
</clipPath>
</defs>
</svg>
