<svg width="32" height="32" viewBox="0 0 32 32" fill="none" xmlns="http://www.w3.org/2000/svg">
<path d="M29 11.828C28.9996 11.1963 28.9224 10.567 28.77 9.954L27.349 4.272C27.1866 3.62291 26.8119 3.04672 26.2845 2.63505C25.757 2.22338 25.1071 1.99985 24.438 2H7.562C6.89291 1.99985 6.24297 2.22338 5.71552 2.63505C5.18806 3.04672 4.81337 3.62291 4.651 4.272L3.23 9.954C3.0776 10.567 3.00036 11.1963 3 11.828C3.00585 12.9365 3.36256 14.0147 4.019 14.908C4.01113 14.9383 4.00479 14.969 4 15V27C4 27.7956 4.31607 28.5587 4.87868 29.1213C5.44129 29.6839 6.20435 30 7 30H25C25.7956 30 26.5587 29.6839 27.1213 29.1213C27.6839 28.5587 28 27.7956 28 27V15C27.9952 14.969 27.9889 14.9383 27.981 14.908C28.6374 14.0147 28.9942 12.9365 29 11.828V11.828ZM5.171 10.439L6.591 4.758C6.64502 4.5414 6.76997 4.34911 6.94593 4.21174C7.1219 4.07438 7.33877 3.99984 7.562 4H24.438C24.6612 3.99984 24.8781 4.07438 25.0541 4.21174C25.23 4.34911 25.355 4.5414 25.409 4.758L26.829 10.439C26.9423 10.8933 26.9997 11.3598 27 11.828C27.0163 12.5927 26.7511 13.3368 26.2548 13.9188C25.7585 14.5008 25.0657 14.8802 24.308 14.985C23.7864 15.0406 23.2593 14.9577 22.78 14.7446C22.3007 14.5314 21.8861 14.1956 21.578 13.771C21.4019 13.53 21.1716 13.3339 20.9056 13.1986C20.6396 13.0633 20.3454 12.9925 20.047 12.992H20.03C19.7125 12.9934 19.3997 13.0681 19.1157 13.2101C18.8318 13.3522 18.5845 13.5578 18.393 13.811C18.1133 14.1809 17.7516 14.481 17.3364 14.6876C16.9212 14.8942 16.4638 15.0017 16 15.0017C15.5362 15.0017 15.0788 14.8942 14.6636 14.6876C14.2484 14.481 13.8867 14.1809 13.607 13.811C13.4155 13.5578 13.1682 13.3522 12.8843 13.2101C12.6003 13.0681 12.2875 12.9934 11.97 12.992H11.953C11.6546 12.9925 11.3604 13.0633 11.0944 13.1986C10.8284 13.3339 10.5981 13.53 10.422 13.771C10.1139 14.1955 9.69925 14.5313 9.21994 14.7444C8.74064 14.9576 8.21361 15.0405 7.692 14.985C6.93432 14.8802 6.24151 14.5008 5.74522 13.9188C5.24892 13.3368 4.98372 12.5927 5 11.828C5.00028 11.3598 5.05771 10.8933 5.171 10.439V10.439ZM13 28V23C13 22.7348 13.1054 22.4804 13.2929 22.2929C13.4804 22.1054 13.7348 22 14 22H18C18.2652 22 18.5196 22.1054 18.7071 22.2929C18.8946 22.4804 19 22.7348 19 23V28H13ZM25 28H21V23C21 22.2044 20.6839 21.4413 20.1213 20.8787C19.5587 20.3161 18.7956 20 18 20H14C13.2044 20 12.4413 20.3161 11.8787 20.8787C11.3161 21.4413 11 22.2044 11 23V28H7C6.73478 28 6.48043 27.8946 6.29289 27.7071C6.10536 27.5196 6 27.2652 6 27V16.55C6.47271 16.7746 6.97975 16.9182 7.5 16.975C7.67 16.992 7.84 17 8.009 17C8.78497 17.0035 9.5511 16.8263 10.2467 16.4824C10.9424 16.1386 11.5485 15.6376 12.017 15.019C12.481 15.6364 13.0826 16.1369 13.7741 16.4808C14.4655 16.8248 15.2277 17.0025 16 17C16.7774 17.007 17.5448 16.8243 18.2357 16.4678C18.9266 16.1113 19.5202 15.5917 19.965 14.954C20.4775 15.6588 21.1662 16.2165 21.9621 16.5712C22.7581 16.9259 23.6333 17.0652 24.5 16.975C25.0202 16.9182 25.5273 16.7745 26 16.55V27C26 27.2652 25.8946 27.5196 25.7071 27.7071C25.5196 27.8946 25.2652 28 25 28Z" fill="#112F4A"/>
</svg>
