<svg width="32" height="32" viewBox="0 0 32 32" fill="none" xmlns="http://www.w3.org/2000/svg">
<g clip-path="url(#clip0_3155_21769)">
<path d="M15.9998 2.66666C8.63584 2.66666 2.6665 8.636 2.6665 16C2.6665 23.364 8.63584 29.3333 15.9998 29.3333C23.3638 29.3333 29.3332 23.364 29.3332 16C29.3332 8.636 23.3638 2.66666 15.9998 2.66666Z" stroke="#112F4A" stroke-width="1.5" stroke-linecap="round" stroke-linejoin="round"/>
<path d="M5.69434 24.4613C5.69434 24.4613 8.66634 20.6667 15.9997 20.6667C23.333 20.6667 26.3063 24.4613 26.3063 24.4613M15.9997 16C17.0605 16 18.078 15.5786 18.8281 14.8284C19.5782 14.0783 19.9997 13.0609 19.9997 12C19.9997 10.9391 19.5782 9.92172 18.8281 9.17157C18.078 8.42143 17.0605 8 15.9997 8C14.9388 8 13.9214 8.42143 13.1712 9.17157C12.4211 9.92172 11.9997 10.9391 11.9997 12C11.9997 13.0609 12.4211 14.0783 13.1712 14.8284C13.9214 15.5786 14.9388 16 15.9997 16V16Z" stroke="#112F4A" stroke-width="1.5" stroke-linecap="round" stroke-linejoin="round"/>
<path d="M22.3125 23.5472V18.4491L27 15.8828L31.6875 18.4491V23.5472L27 26.1134L22.3125 23.5472Z" fill="#112F4A" stroke="white" stroke-width="0.5" stroke-miterlimit="10" stroke-linejoin="round"/>
<path d="M23.6831 22.3272V19.6728L25.2756 22.3272V19.6728" stroke="white" stroke-width="0.5" stroke-miterlimit="10" stroke-linecap="round" stroke-linejoin="round"/>
<path d="M26.3374 22.3272V19.6728H27.9299" stroke="white" stroke-width="0.5" stroke-miterlimit="10" stroke-linecap="round" stroke-linejoin="round"/>
<path d="M26.3374 21H27.3993" stroke="white" stroke-width="0.5" stroke-miterlimit="10" stroke-linecap="round" stroke-linejoin="round"/>
<path d="M28.7285 19.6728H30.4507" stroke="white" stroke-width="0.5" stroke-miterlimit="10" stroke-linecap="round" stroke-linejoin="round"/>
<path d="M29.5894 19.6728V22.3272" stroke="white" stroke-width="0.5" stroke-miterlimit="10" stroke-linecap="round" stroke-linejoin="round"/>
<path d="M24.2745 14.7497L24.272 15.925L25.3907 16.7637" stroke="white" stroke-width="0.5" stroke-miterlimit="10" stroke-linecap="round" stroke-linejoin="round"/>
<path d="M24.2747 14.7497C24.6263 14.7497 24.9113 14.4647 24.9113 14.1131C24.9113 13.7616 24.6263 13.4766 24.2747 13.4766C23.9232 13.4766 23.6382 13.7616 23.6382 14.1131C23.6382 14.4647 23.9232 14.7497 24.2747 14.7497Z" stroke="white" stroke-width="0.5" stroke-miterlimit="10" stroke-linecap="round" stroke-linejoin="round"/>
<path d="M29.7251 14.7497L29.7276 15.925L28.6089 16.7637" stroke="white" stroke-width="0.5" stroke-miterlimit="10" stroke-linecap="round" stroke-linejoin="round"/>
<path d="M29.7254 14.7497C30.077 14.7497 30.362 14.4647 30.362 14.1131C30.362 13.7616 30.077 13.4766 29.7254 13.4766C29.3739 13.4766 29.0889 13.7616 29.0889 14.1131C29.0889 14.4647 29.3739 14.7497 29.7254 14.7497Z" stroke="white" stroke-width="0.5" stroke-miterlimit="10" stroke-linecap="round" stroke-linejoin="round"/>
<path d="M27 15.8878V13.8353" stroke="white" stroke-width="0.5" stroke-miterlimit="10" stroke-linecap="round" stroke-linejoin="round"/>
<path d="M26.9998 13.8356C27.3514 13.8356 27.6364 13.5506 27.6364 13.1991C27.6364 12.8475 27.3514 12.5625 26.9998 12.5625C26.6483 12.5625 26.3633 12.8475 26.3633 13.1991C26.3633 13.5506 26.6483 13.8356 26.9998 13.8356Z" stroke="white" stroke-width="0.5" stroke-miterlimit="10" stroke-linecap="round" stroke-linejoin="round"/>
<path d="M24.275 27.2503L24.2725 26.075L25.3912 25.2363" stroke="white" stroke-width="0.5" stroke-miterlimit="10" stroke-linecap="round" stroke-linejoin="round"/>
<path d="M24.2747 28.5234C24.6263 28.5234 24.9113 28.2384 24.9113 27.8869C24.9113 27.5353 24.6263 27.2503 24.2747 27.2503C23.9232 27.2503 23.6382 27.5353 23.6382 27.8869C23.6382 28.2384 23.9232 28.5234 24.2747 28.5234Z" stroke="white" stroke-width="0.5" stroke-miterlimit="10" stroke-linecap="round" stroke-linejoin="round"/>
<path d="M29.7251 27.2503L29.7276 26.075L28.6089 25.2363" stroke="white" stroke-width="0.5" stroke-miterlimit="10" stroke-linecap="round" stroke-linejoin="round"/>
<path d="M29.7254 28.5234C30.077 28.5234 30.362 28.2384 30.362 27.8869C30.362 27.5353 30.077 27.2503 29.7254 27.2503C29.3739 27.2503 29.0889 27.5353 29.0889 27.8869C29.0889 28.2384 29.3739 28.5234 29.7254 28.5234Z" stroke="white" stroke-width="0.5" stroke-miterlimit="10" stroke-linecap="round" stroke-linejoin="round"/>
<path d="M27 26.1122V28.1647" stroke="white" stroke-width="0.5" stroke-miterlimit="10" stroke-linecap="round" stroke-linejoin="round"/>
<path d="M26.9998 29.4375C27.3514 29.4375 27.6364 29.1525 27.6364 28.8009C27.6364 28.4494 27.3514 28.1644 26.9998 28.1644C26.6483 28.1644 26.3633 28.4494 26.3633 28.8009C26.3633 29.1525 26.6483 29.4375 26.9998 29.4375Z" stroke="white" stroke-width="0.5" stroke-miterlimit="10" stroke-linecap="round" stroke-linejoin="round"/>
</g>
<defs>
<clipPath id="clip0_3155_21769">
<rect width="32" height="32" fill="white"/>
</clipPath>
</defs>
</svg>
