<svg width="32" height="21" viewBox="0 0 32 21" fill="none" xmlns="http://www.w3.org/2000/svg">
<path d="M6.15385 20.8H2.87179C2.11041 20.7992 1.38047 20.5148 0.842089 20.0094C0.303711 19.5039 0.000868661 18.8186 0 18.1037V11.9407C0.000868661 11.2259 0.303711 10.5406 0.842089 10.0351C1.38047 9.5296 2.11041 9.24526 2.87179 9.24445H6.15385C6.91523 9.24526 7.64517 9.5296 8.18355 10.0351C8.72193 10.5406 9.02477 11.2259 9.02564 11.9407V18.1037C9.02477 18.8186 8.72193 19.5039 8.18355 20.0094C7.64517 20.5148 6.91523 20.7992 6.15385 20.8ZM2.87179 11.5556C2.76299 11.5556 2.65864 11.5961 2.5817 11.6684C2.50476 11.7406 2.46154 11.8386 2.46154 11.9407V18.1037C2.46154 18.2059 2.50476 18.3038 2.5817 18.3761C2.65864 18.4483 2.76299 18.4889 2.87179 18.4889H6.15385C6.26265 18.4889 6.367 18.4483 6.44394 18.3761C6.52088 18.3038 6.5641 18.2059 6.5641 18.1037V11.9407C6.5641 11.8386 6.52088 11.7406 6.44394 11.6684C6.367 11.5961 6.26265 11.5556 6.15385 11.5556H2.87179ZM17.641 20.8H14.359C13.5976 20.7992 12.8676 20.5148 12.3293 20.0094C11.7909 19.5039 11.488 18.8186 11.4872 18.1037V5.77778C11.488 5.06293 11.7909 4.37759 12.3293 3.87211C12.8676 3.36663 13.5976 3.0823 14.359 3.08148H17.641C18.4024 3.0823 19.1324 3.36663 19.6707 3.87211C20.2091 4.37759 20.512 5.06293 20.5128 5.77778V18.1037C20.512 18.8186 20.2091 19.5039 19.6707 20.0094C19.1324 20.5148 18.4024 20.7992 17.641 20.8ZM14.359 5.39259C14.2502 5.39259 14.1458 5.43318 14.0689 5.50541C13.9919 5.57765 13.9487 5.67562 13.9487 5.77778V18.1037C13.9487 18.2059 13.9919 18.3038 14.0689 18.3761C14.1458 18.4483 14.2502 18.4889 14.359 18.4889H17.641C17.7498 18.4889 17.8542 18.4483 17.9311 18.3761C18.0081 18.3038 18.0513 18.2059 18.0513 18.1037V5.77778C18.0513 5.67562 18.0081 5.57765 17.9311 5.50541C17.8542 5.43318 17.7498 5.39259 17.641 5.39259H14.359ZM29.1282 20.8H25.8462C25.0848 20.7992 24.3548 20.5148 23.8164 20.0094C23.2781 19.5039 22.9752 18.8186 22.9744 18.1037V2.6963C22.9752 1.98145 23.2781 1.2961 23.8164 0.790627C24.3548 0.28515 25.0848 0.000815576 25.8462 0H29.1282C29.8896 0.000815576 30.6195 0.28515 31.1579 0.790627C31.6963 1.2961 31.9991 1.98145 32 2.6963V18.1037C31.9991 18.8186 31.6963 19.5039 31.1579 20.0094C30.6195 20.5148 29.8896 20.7992 29.1282 20.8ZM25.8462 2.31111C25.7373 2.31111 25.633 2.35169 25.5561 2.42393C25.4791 2.49617 25.4359 2.59414 25.4359 2.6963V18.1037C25.4359 18.2059 25.4791 18.3038 25.5561 18.3761C25.633 18.4483 25.7373 18.4889 25.8462 18.4889H29.1282C29.237 18.4889 29.3414 18.4483 29.4183 18.3761C29.4952 18.3038 29.5385 18.2059 29.5385 18.1037V2.6963C29.5385 2.59414 29.4952 2.49617 29.4183 2.42393C29.3414 2.35169 29.237 2.31111 29.1282 2.31111H25.8462Z" fill="#112F4A"/>
</svg>
