<svg width="19" height="19" viewBox="0 0 19 19" fill="none" xmlns="http://www.w3.org/2000/svg">
<path d="M8.78799 13.7979H10.588V8.39785H8.78799V13.7979ZM9.68799 6.59785C9.94299 6.59785 10.1569 6.51145 10.3297 6.33865C10.5025 6.16585 10.5886 5.95225 10.588 5.69785C10.588 5.44285 10.5016 5.22895 10.3288 5.05615C10.156 4.88335 9.94239 4.79725 9.68799 4.79785C9.43299 4.79785 9.21909 4.88425 9.04629 5.05705C8.87349 5.22985 8.78739 5.44345 8.78799 5.69785C8.78799 5.95285 8.87439 6.16675 9.04719 6.33955C9.21999 6.51235 9.43359 6.59845 9.68799 6.59785ZM9.68799 18.2978C8.44299 18.2978 7.27299 18.0614 6.17799 17.5886C5.08299 17.1159 4.13049 16.4748 3.32049 15.6654C2.51049 14.8554 1.86939 13.9029 1.39719 12.8078C0.924988 11.7129 0.688588 10.5429 0.687988 9.29785C0.687988 8.05285 0.924388 6.88285 1.39719 5.78785C1.86999 4.69285 2.51109 3.74035 3.32049 2.93035C4.13049 2.12035 5.08299 1.47925 6.17799 1.00705C7.27299 0.534852 8.44299 0.298452 9.68799 0.297852C10.933 0.297852 12.103 0.534252 13.198 1.00705C14.293 1.47985 15.2455 2.12095 16.0555 2.93035C16.8655 3.74035 17.5069 4.69285 17.9797 5.78785C18.4525 6.88285 18.6886 8.05285 18.688 9.29785C18.688 10.5429 18.4516 11.7129 17.9788 12.8078C17.506 13.9029 16.8649 14.8554 16.0555 15.6654C15.2455 16.4754 14.293 17.1167 13.198 17.5896C12.103 18.0623 10.933 18.2985 9.68799 18.2978ZM9.68799 16.4979C11.698 16.4979 13.4005 15.8003 14.7955 14.4053C16.1905 13.0103 16.888 11.3079 16.888 9.29785C16.888 7.28785 16.1905 5.58535 14.7955 4.19035C13.4005 2.79535 11.698 2.09785 9.68799 2.09785C7.67799 2.09785 5.97549 2.79535 4.58049 4.19035C3.18549 5.58535 2.48799 7.28785 2.48799 9.29785C2.48799 11.3079 3.18549 13.0103 4.58049 14.4053C5.97549 15.8003 7.67799 16.4979 9.68799 16.4979Z" fill="#FDF41B"/>
</svg>
