<svg width="18" height="18" viewBox="0 0 18 18" fill="none" xmlns="http://www.w3.org/2000/svg">
<path d="M8.1 13.5H9.9V8.1H8.1V13.5ZM9 6.3C9.255 6.3 9.4689 6.2136 9.6417 6.0408C9.8145 5.868 9.9006 5.6544 9.9 5.4C9.9 5.145 9.8136 4.9311 9.6408 4.7583C9.468 4.5855 9.2544 4.4994 9 4.5C8.745 4.5 8.5311 4.5864 8.3583 4.7592C8.1855 4.932 8.0994 5.1456 8.1 5.4C8.1 5.655 8.1864 5.8689 8.3592 6.0417C8.532 6.2145 8.7456 6.3006 9 6.3ZM9 18C7.755 18 6.585 17.7636 5.49 17.2908C4.395 16.818 3.4425 16.1769 2.6325 15.3675C1.8225 14.5575 1.1814 13.605 0.7092 12.51C0.237 11.415 0.0006 10.245 0 9C0 7.755 0.2364 6.585 0.7092 5.49C1.182 4.395 1.8231 3.4425 2.6325 2.6325C3.4425 1.8225 4.395 1.1814 5.49 0.7092C6.585 0.237 7.755 0.0006 9 0C10.245 0 11.415 0.2364 12.51 0.7092C13.605 1.182 14.5575 1.8231 15.3675 2.6325C16.1775 3.4425 16.8189 4.395 17.2917 5.49C17.7645 6.585 18.0006 7.755 18 9C18 10.245 17.7636 11.415 17.2908 12.51C16.818 13.605 16.1769 14.5575 15.3675 15.3675C14.5575 16.1775 13.605 16.8189 12.51 17.2917C11.415 17.7645 10.245 18.0006 9 18ZM9 16.2C11.01 16.2 12.7125 15.5025 14.1075 14.1075C15.5025 12.7125 16.2 11.01 16.2 9C16.2 6.99 15.5025 5.2875 14.1075 3.8925C12.7125 2.4975 11.01 1.8 9 1.8C6.99 1.8 5.2875 2.4975 3.8925 3.8925C2.4975 5.2875 1.8 6.99 1.8 9C1.8 11.01 2.4975 12.7125 3.8925 14.1075C5.2875 15.5025 6.99 16.2 9 16.2Z" fill="url(#paint0_linear_1064_35369)"/>
<defs>
<linearGradient id="paint0_linear_1064_35369" x1="0.329032" y1="0.940297" x2="17.5318" y2="1.26644" gradientUnits="userSpaceOnUse">
<stop stop-color="#FF00FF"/>
<stop offset="1" stop-color="#07F0FF"/>
</linearGradient>
</defs>
</svg>
