<svg width="32" height="32" viewBox="0 0 32 32" fill="none" xmlns="http://www.w3.org/2000/svg">
<circle cx="16" cy="16" r="16" fill="#112F4A"/>
<g clip-path="url(#clip0_4494_23254)">
<path d="M16.625 16C16.625 18.9293 14.382 21.3125 11.625 21.3125C8.86797 21.3125 6.625 18.9293 6.625 16C6.625 13.0707 8.86797 10.6875 11.625 10.6875C14.382 10.6875 16.625 13.0707 16.625 16ZM20.375 11C19.931 11 19.0938 11.2157 18.4747 12.6602C18.088 13.5626 17.875 14.7487 17.875 16C17.875 17.2513 18.088 18.4374 18.4747 19.3398C19.0938 20.7843 19.931 21 20.375 21C20.819 21 21.6562 20.7843 22.2753 19.3398C22.662 18.4374 22.875 17.2513 22.875 16C22.875 14.7487 22.662 13.5626 22.2753 12.6602C21.6562 11.2157 20.819 11 20.375 11ZM24.75 11C24.5842 11 24.4253 11.0659 24.3081 11.1831C24.1909 11.3003 24.125 11.4592 24.125 11.625V20.375C24.125 20.5408 24.1908 20.6997 24.3081 20.8169C24.4253 20.9342 24.5842 21 24.75 21C24.9158 21 25.0747 20.9342 25.1919 20.8169C25.3092 20.6997 25.375 20.5408 25.375 20.375V11.625C25.375 11.4592 25.3091 11.3003 25.1919 11.1831C25.0747 11.0659 24.9158 11 24.75 11V11Z" fill="white"/>
</g>
<defs>
<clipPath id="clip0_4494_23254">
<rect width="20" height="20" fill="white" transform="translate(6 6)"/>
</clipPath>
</defs>
</svg>
