<svg width="32" height="32" viewBox="0 0 32 32" fill="none" xmlns="http://www.w3.org/2000/svg">
<g clip-path="url(#clip0_2537_376)">
<path d="M16 32C24.8366 32 32 24.8366 32 16C32 7.16344 24.8366 0 16 0C7.16344 0 0 7.16344 0 16C0 24.8366 7.16344 32 16 32Z" fill="#112F4A"/>
<path d="M26.2589 9.63547C25.5042 9.97036 24.6936 10.1968 23.8413 10.2985C24.7112 9.77765 25.3775 8.95228 25.6921 7.96995C24.8659 8.4607 23.9616 8.80618 23.0186 8.9914C22.2512 8.17342 21.1569 7.66272 19.9462 7.66272C17.6224 7.66272 15.7378 9.54659 15.7378 11.8718C15.7378 12.2012 15.7749 12.5226 15.8462 12.8312C12.348 12.6554 9.24662 10.9797 7.1707 8.43354C6.80821 9.0554 6.60073 9.77841 6.60073 10.5498C6.60073 12.0099 7.3439 13.2982 8.47314 14.0528C7.80465 14.0321 7.15083 13.8517 6.56634 13.5266V13.5798C6.56634 15.6193 8.01699 17.3199 9.94264 17.7067C9.5889 17.8036 9.21767 17.8543 8.83361 17.8543C8.56207 17.8543 8.29863 17.8286 8.04127 17.7802C8.5769 19.4518 10.1314 20.6686 11.9727 20.703C10.5322 21.8323 8.71702 22.5054 6.74557 22.5054C6.40601 22.5054 6.07042 22.4851 5.74097 22.4454C7.60398 23.64 9.81599 24.3374 12.1931 24.3374C19.9348 24.3374 24.1688 17.9237 24.1688 12.3617C24.1688 12.1791 24.1648 11.9978 24.156 11.8172C24.9809 11.2206 25.693 10.4818 26.2589 9.63547Z" fill="white"/>
</g>
<defs>
<clipPath id="clip0_2537_376">
<rect width="32" height="32" fill="white"/>
</clipPath>
</defs>
</svg>
