<svg width="16" height="16" viewBox="0 0 16 16" fill="none" xmlns="http://www.w3.org/2000/svg">
<path d="M6.28906 10.9858H6.29052V11.6522C6.29052 11.76 6.31193 11.8623 6.34392 11.959H6.28906C6.02793 11.959 5.81494 11.741 5.81494 11.4726C5.81494 11.2043 6.02791 10.9858 6.28906 10.9858Z" fill="white"/>
<path d="M5.81494 12.8202C5.81494 12.5519 6.02779 12.333 6.28906 12.333H6.57136C6.73811 12.4999 6.96484 12.6036 7.21539 12.6036C7.46571 12.6036 7.69266 12.5002 7.85943 12.333H8.36686C8.628 12.333 8.84061 12.5517 8.84061 12.8202C8.84061 13.0886 8.62813 13.3067 8.36686 13.3067H6.28786C6.02794 13.3066 5.81494 13.0886 5.81494 12.8202Z" fill="white"/>
<path d="M8.08789 11.9595C8.12025 11.8624 8.14129 11.7605 8.14129 11.6527V11.644C8.20198 11.7519 8.26401 11.8575 8.33273 11.9599H8.08789L8.08789 11.9595Z" fill="white"/>
<path d="M8.36807 13.6797C8.6292 13.6797 8.84181 13.8984 8.84181 14.1669C8.84181 14.4353 8.62933 14.6534 8.36807 14.6534H6.28906C6.02793 14.6534 5.81494 14.4354 5.81494 14.1669C5.81494 13.8986 6.02779 13.6797 6.28906 13.6797H8.36807Z" fill="white"/>
<path d="M5.81494 15.5136C5.81494 15.2452 6.02779 15.0264 6.28906 15.0264H8.36807C8.6292 15.0264 8.84181 15.2451 8.84181 15.5136C8.84181 15.782 8.62933 16.0001 8.36807 16.0001H6.28906C6.02793 16 5.81494 15.782 5.81494 15.5136Z" fill="white"/>
<path d="M13.1249 15.443H12.1139C11.766 15.443 11.4284 15.5157 11.1114 15.661L10.9177 15.7491C10.5523 15.9145 10.1651 15.9992 9.76543 15.9992H9.05706C9.15011 15.8607 9.20496 15.6939 9.20496 15.5127C9.20496 15.2388 9.07713 14.9957 8.88242 14.8382C9.07715 14.6807 9.20496 14.4402 9.20496 14.1651C9.20496 13.8911 9.07713 13.6487 8.88242 13.4912C9.05647 13.3512 9.17226 13.1432 9.19622 12.9059C9.66193 13.287 10.2013 13.5775 10.7967 13.7383C10.8119 13.7428 10.8276 13.7451 10.8428 13.7451C10.9234 13.7451 10.9968 13.6899 11.018 13.6059C11.0434 13.5059 10.9856 13.4039 10.889 13.3777C9.60233 13.0298 8.57796 12.0536 8.14133 10.763V10.6463C8.14133 10.5436 8.05996 10.4596 7.95974 10.4596C7.85952 10.4596 7.77815 10.5436 7.77815 10.6463V11.6523C7.77815 11.9712 7.52601 12.2298 7.21622 12.2298C6.90631 12.2298 6.6543 11.9711 6.6543 11.6523V9.91977C6.6543 9.53717 6.95691 9.22656 7.32847 9.22656H8.98713C9.45029 9.22656 9.8626 9.51105 10.038 9.9519C10.4641 11.0222 11.4664 11.7143 12.5917 11.7143H13.1246V15.4431L13.1249 15.443Z" fill="white"/>
<path d="M12.7348 0H3.26497C2.5678 0 2 0.502462 2 1.12021V5.9038C2 6.52083 2.56739 7.02296 3.26497 7.02296H7.7444V9.20464H8.25594V7.02296H12.735C13.4322 7.02296 14 6.52119 14 5.9038V1.12021C14 0.502342 13.4319 0 12.7348 0ZM6.50972 4.0271C6.50972 4.15181 6.39524 4.25319 6.25401 4.25319H5.09009C4.94886 4.25319 4.83438 4.15181 4.83438 4.0271V2.99637C4.83438 2.87131 4.94886 2.76993 5.09009 2.76993H6.25401C6.39524 2.76993 6.50972 2.87131 6.50972 2.99637V4.0271ZM8.8378 4.0271C8.8378 4.15181 8.72332 4.25319 8.5821 4.25319H7.41817C7.27695 4.25319 7.16247 4.15181 7.16247 4.0271V2.99637C7.16247 2.87131 7.27695 2.76993 7.41817 2.76993H8.5821C8.72332 2.76993 8.8378 2.87131 8.8378 2.99637V4.0271ZM11.1655 4.0271C11.1655 4.15181 11.051 4.25319 10.9098 4.25319H9.74589C9.60466 4.25319 9.49018 4.15181 9.49018 4.0271V2.99637C9.49018 2.87131 9.60466 2.76993 9.74589 2.76993H10.9098C11.051 2.76993 11.1655 2.87131 11.1655 2.99637V4.0271Z" fill="#E0499B"/>
<rect x="4" y="2" width="8" height="3" fill="#E0499B"/>
<path d="M5.99791 3.45899C6.19842 3.48777 6.36849 3.57266 6.50813 3.71367C6.64777 3.85468 6.71759 4.01439 6.71759 4.19281C6.71759 4.34532 6.66746 4.48345 6.56721 4.60719C6.47054 4.72806 6.32911 4.82446 6.14292 4.8964C5.95674 4.96547 5.74012 5 5.49306 5H4V2H5.42324C5.67746 2 5.89587 2.03453 6.07847 2.1036C6.26108 2.17266 6.39893 2.26619 6.49202 2.38417C6.58511 2.49928 6.63166 2.62878 6.63166 2.77266C6.63166 2.94532 6.57437 3.08921 6.4598 3.20432C6.34522 3.31942 6.19126 3.40432 5.99791 3.45899ZM4.61226 3.26043H5.36954C5.57004 3.26043 5.7258 3.22446 5.83679 3.15252C5.95137 3.0777 6.00865 2.97122 6.00865 2.83309C6.00865 2.69784 5.95137 2.59281 5.83679 2.51799C5.7258 2.44029 5.57004 2.40144 5.36954 2.40144H4.61226V3.26043ZM5.43936 4.59856C5.64702 4.59856 5.80994 4.55827 5.92809 4.4777C6.04625 4.39712 6.10533 4.28489 6.10533 4.14101C6.10533 3.99424 6.04267 3.8777 5.91735 3.79137C5.79203 3.70504 5.62554 3.66187 5.41787 3.66187H4.61226V4.59856H5.43936Z" fill="white"/>
<path d="M7.9952 2V5H7.38293V2H7.9952Z" fill="white"/>
<path d="M10.0182 2C10.4156 2 10.7629 2.06187 11.0601 2.18561C11.3609 2.30647 11.5918 2.48201 11.7529 2.71223C11.9176 2.93957 12 3.20576 12 3.51079C12 3.81583 11.9176 4.08058 11.7529 4.30504C11.5918 4.5295 11.3609 4.70216 11.0601 4.82302C10.7629 4.94101 10.4156 5 10.0182 5H8.79904V2H10.0182ZM10.0182 4.59856C10.455 4.59856 10.7898 4.5036 11.0225 4.31367C11.2553 4.12374 11.3716 3.85612 11.3716 3.51079C11.3716 3.16259 11.2553 2.89065 11.0225 2.69496C10.7898 2.49928 10.455 2.40144 10.0182 2.40144H9.41131V4.59856H10.0182Z" fill="white"/>
</svg>
