<svg width="16" height="16" viewBox="0 0 16 16" fill="none" xmlns="http://www.w3.org/2000/svg">
<path d="M8.18307 15.9895C8.18307 15.9895 5.01356 16.3687 3.15967 12.5758C1.30578 8.78277 3.21962 8.87004 1.36572 7.3382C1.36572 7.3382 2.92062 7.23618 3.5186 8.66578C3.5186 8.66578 2.47202 6.43364 4.08662 4.98206C4.08662 4.98206 4.38561 6.41914 5.34253 6.59415C5.34253 6.59415 4.29594 1.98482 8.18307 0C8.18307 0 7.79416 2.01337 8.90046 3.00543C10.0068 3.99748 10.9337 4.8143 10.6647 5.63134C10.6647 5.63134 11.8606 5.54383 12.2493 3.36996C12.2493 3.36996 14.2825 6.06888 13.1166 9.10355C13.1166 9.10355 14.1629 7.99473 15.0002 8.16975C15.0002 8.16975 14.2526 9.59958 14.1629 11.4669C14.0732 13.3343 12.0409 15.9895 8.18307 15.9895Z" fill="url(#paint0_linear_1389_23059)"/>
<path d="M8.18256 15.9893C8.18256 15.9893 5.71582 15.7193 5.71582 13.7717C5.71582 11.8241 8.29453 9.94223 7.93584 8.21338C7.93584 8.21338 9.55044 9.78898 8.83281 11.8679C8.83281 11.8679 9.70725 12.1306 10.5592 10.6205C10.5603 10.6205 11.816 15.9893 8.18256 15.9893Z" fill="white"/>
<path d="M2.61436 6.95911C2.61436 6.95911 2.92846 6.0838 2.30051 5.25108C1.67255 4.41836 1 4.70405 1 4.70405C1 4.70405 1.65025 4.96657 2.00895 5.5136C2.36764 6.06064 2.61436 6.95911 2.61436 6.95911Z" fill="#BC3100"/>
<path d="M5.09008 1.05762C5.09008 1.05762 3.89483 1.96802 4.37245 4.16529C4.37245 4.16529 4.61917 4.05579 4.77598 2.91773C4.93279 1.77967 4.52854 1.84565 5.09008 1.05762Z" fill="#BC3100"/>
<path d="M10.291 0.838867C10.291 0.838867 10.6507 1.58291 10.5826 2.3927C10.5145 3.2025 10.9183 4.03381 10.9183 4.03381C10.9183 4.03381 12.085 2.04244 10.291 0.838867Z" fill="#BC3100"/>
<path d="M13.9241 7.55702C13.9241 7.55702 13.7448 6.82771 14.1334 6.11268C14.5221 5.39765 14.6418 4.90186 14.6418 4.90186C14.6418 4.90186 15.1052 6.76922 13.9241 7.55702Z" fill="#BC3100"/>
<defs>
<linearGradient id="paint0_linear_1389_23059" x1="8.67555" y1="16.0459" x2="7.97083" y2="3.57106" gradientUnits="userSpaceOnUse">
<stop stop-color="#FF6424"/>
<stop offset="1" stop-color="#BC3100"/>
</linearGradient>
</defs>
</svg>
