<svg width="12" height="12" viewBox="0 0 12 12" fill="none" xmlns="http://www.w3.org/2000/svg">
<path d="M2.5 11C2.225 11 1.9895 10.902 1.7935 10.706C1.5975 10.51 1.49967 10.2747 1.5 10V3H2.5V10H8V11H2.5ZM4.5 9C4.225 9 3.9895 8.902 3.7935 8.706C3.5975 8.51 3.49967 8.27467 3.5 8V2C3.5 1.725 3.598 1.4895 3.794 1.2935C3.99 1.0975 4.22533 0.999668 4.5 1H9C9.275 1 9.5105 1.098 9.7065 1.294C9.9025 1.49 10.0003 1.72533 10 2V8C10 8.275 9.902 8.5105 9.706 8.7065C9.51 8.9025 9.27467 9.00033 9 9H4.5Z" fill="#E0499B"/>
</svg>
