<svg width="16" height="16" viewBox="0 0 16 16" fill="none" xmlns="http://www.w3.org/2000/svg">
<path d="M5.33333 14.125V12.375H16V14.125H5.33333ZM5.33333 8.875V7.125H16V8.875H10.6667H5.33333ZM5.33333 3.625V1.875H16V3.625H5.33333ZM1.77778 15C1.28889 15 0.870224 14.8285 0.521779 14.4855C0.173335 14.1425 -0.000591083 13.7307 1.50915e-06 13.25C1.50915e-06 12.7687 0.174224 12.3566 0.522668 12.0136C0.871113 11.6706 1.28948 11.4994 1.77778 11.5C2.26667 11.5 2.68533 11.6715 3.03378 12.0145C3.38222 12.3575 3.55615 12.7693 3.55556 13.25C3.55556 13.7312 3.38133 14.1434 3.03289 14.4864C2.68445 14.8294 2.26608 15.0006 1.77778 15ZM1.77778 9.75C1.28889 9.75 0.870224 9.5785 0.521779 9.2355C0.173335 8.8925 -0.000591083 8.48067 1.50915e-06 8C1.50915e-06 7.51875 0.174224 7.10663 0.522668 6.76363C0.871113 6.42063 1.28948 6.24942 1.77778 6.25C2.26667 6.25 2.68533 6.4215 3.03378 6.7645C3.38222 7.1075 3.55615 7.51933 3.55556 8C3.55556 8.48125 3.38133 8.89337 3.03289 9.23637C2.68445 9.57937 2.26608 9.75058 1.77778 9.75ZM1.77778 4.5C1.28889 4.5 0.870224 4.3285 0.521779 3.9855C0.173335 3.6425 -0.000591083 3.23067 1.50915e-06 2.75C1.50915e-06 2.26875 0.174224 1.85663 0.522668 1.51363C0.871113 1.17063 1.28948 0.999418 1.77778 1C2.26667 1 2.68533 1.1715 3.03378 1.5145C3.38222 1.8575 3.55615 2.26933 3.55556 2.75C3.55556 3.23125 3.38133 3.64338 3.03289 3.98638C2.68445 4.32938 2.26608 4.50058 1.77778 4.5Z" fill="#FDF41B"/>
<path d="M1.77778 15C1.28889 15 0.870224 14.8285 0.521779 14.4855C0.173335 14.1425 -0.000591083 13.7307 1.50915e-06 13.25C1.50915e-06 12.7687 0.174224 12.3566 0.522668 12.0136C0.871113 11.6706 1.28948 11.4994 1.77778 11.5C2.26667 11.5 2.68533 11.6715 3.03378 12.0145C3.38222 12.3575 3.55615 12.7693 3.55556 13.25C3.55556 13.7312 3.38133 14.1434 3.03289 14.4864C2.68445 14.8294 2.26608 15.0006 1.77778 15ZM1.77778 9.75C1.28889 9.75 0.870224 9.5785 0.521779 9.2355C0.173335 8.8925 -0.000591083 8.48067 1.50915e-06 8C1.50915e-06 7.51875 0.174224 7.10663 0.522668 6.76363C0.871113 6.42063 1.28948 6.24942 1.77778 6.25C2.26667 6.25 2.68533 6.4215 3.03378 6.7645C3.38222 7.1075 3.55615 7.51933 3.55556 8C3.55556 8.48125 3.38133 8.89337 3.03289 9.23637C2.68445 9.57937 2.26608 9.75058 1.77778 9.75ZM1.77778 4.5C1.28889 4.5 0.870224 4.3285 0.521779 3.9855C0.173335 3.6425 -0.000591083 3.23067 1.50915e-06 2.75C1.50915e-06 2.26875 0.174224 1.85663 0.522668 1.51363C0.871113 1.17063 1.28948 0.999418 1.77778 1C2.26667 1 2.68533 1.1715 3.03378 1.5145C3.38222 1.8575 3.55615 2.26933 3.55556 2.75C3.55556 3.23125 3.38133 3.64338 3.03289 3.98638C2.68445 4.32938 2.26608 4.50058 1.77778 4.5Z" fill="#E0499B"/>
</svg>
