<svg width="64" height="64" viewBox="0 0 64 64" fill="none" xmlns="http://www.w3.org/2000/svg">
<path d="M24.3117 18.022L40.0484 27.1075V45.2786L24.3117 54.3642L8.57509 45.2786V27.1075L24.3117 18.022Z" fill="url(#paint0_linear_1248_23260)"/>
<path d="M32.7999 42.002C33.4785 42.002 34.0285 41.452 34.0285 40.7735V33.3159H34.9715C35.65 33.3159 36.2 32.7659 36.2 32.0874C36.2 31.4089 35.65 30.8589 34.9715 30.8589H30.6284C29.9499 30.8589 29.3999 31.4089 29.3999 32.0874C29.3999 32.7659 29.9499 33.3159 30.6284 33.3159H31.5714V40.7735C31.5714 41.452 32.1214 42.002 32.7999 42.002Z" fill="white"/>
<path d="M26.906 33.3159C27.5845 33.3159 28.1346 32.7659 28.1346 32.0874C28.1346 31.4089 27.5845 30.8589 26.906 30.8589H22.563C21.8845 30.8589 21.3345 31.4089 21.3345 32.0874V40.7735C21.3345 41.452 21.8845 42.002 22.563 42.002C23.2415 42.002 23.7915 41.452 23.7915 40.7735V38.2795H25.6186C26.2971 38.2795 26.8471 37.7295 26.8471 37.051C26.8471 36.3725 26.2971 35.8225 25.6186 35.8225H23.7915V33.316H26.906V33.3159Z" fill="white"/>
<path d="M16.9914 32.0874V36.1474L14.3231 31.478C14.0467 30.9943 13.4796 30.7573 12.941 30.9001C12.4027 31.0431 12.0278 31.5304 12.0278 32.0874V40.7735C12.0278 41.452 12.5778 42.002 13.2563 42.002C13.9349 42.002 14.4849 41.452 14.4849 40.7735V36.7135L17.1532 41.383C17.3758 41.7724 17.7869 42.0022 18.2198 42.0022C18.3245 42.0022 18.4304 41.9888 18.5353 41.9609C19.0736 41.8179 19.4484 41.3305 19.4484 40.7735V32.0874C19.4484 31.4089 18.8984 30.8589 18.2199 30.8589C17.5414 30.8589 16.9914 31.4089 16.9914 32.0874Z" fill="white"/>
<path d="M46.4496 27.1308C45.7711 27.1308 45.2211 27.6808 45.2211 28.3593V48.617L24.114 60.8031L3.00684 48.6169V24.2444L24.114 12.0582L35.071 18.3842C35.6585 18.7234 36.4098 18.5221 36.7491 17.9346C37.0884 17.347 36.8871 16.5956 36.2995 16.2565L24.7282 9.57578C24.3481 9.35625 23.8798 9.35625 23.4997 9.57578L1.16406 22.4713C0.78396 22.6907 0.549805 23.0962 0.549805 23.5352V49.3263C0.549805 49.7652 0.78396 50.1707 1.16406 50.3902L23.4997 63.2855C23.6898 63.3953 23.9018 63.4501 24.114 63.4501C24.3261 63.4501 24.5382 63.3953 24.7282 63.2855L47.0639 50.3902C47.444 50.1707 47.6781 49.7652 47.6781 49.3263V28.3593C47.6781 27.6808 47.1281 27.1308 46.4496 27.1308Z" fill="url(#paint1_linear_1248_23260)"/>
<path d="M23.4999 16.7402L7.36865 26.0536C6.98855 26.273 6.75439 26.6786 6.75439 27.1175V45.7445C6.75439 46.1834 6.98855 46.589 7.36865 46.8084L23.4999 56.1217C23.69 56.2315 23.902 56.2863 24.1142 56.2863C24.3263 56.2863 24.5384 56.2314 24.7284 56.1217L40.8598 46.8084C41.2399 46.589 41.4741 46.1834 41.4741 45.7445V27.1175C41.4741 26.439 40.9241 25.889 40.2456 25.889C39.5671 25.889 39.0171 26.439 39.0171 27.1175V45.0352L24.1142 53.6391L9.21143 45.0352V27.8267L24.1142 19.2227L35.9438 26.0525C36.5314 26.3917 37.2826 26.1905 37.622 25.6029C37.9613 25.0153 37.7599 24.2639 37.1723 23.9247L24.7284 16.7404C24.3483 16.5208 23.88 16.5208 23.4999 16.7402Z" fill="url(#paint2_linear_1248_23260)"/>
<path fill-rule="evenodd" clip-rule="evenodd" d="M49.1226 0.549805C57.0353 0.549805 63.4499 6.96432 63.4499 14.877C63.4499 22.7897 57.0353 29.2042 49.1227 29.2042C46.3815 29.2042 43.8204 28.434 41.6431 27.0985C40.1091 27.5101 38.5752 27.9216 37.041 28.3327C36.2223 28.5637 35.438 27.8147 35.6624 26.9726C36.075 25.4326 36.4877 23.8942 36.9005 22.3557C35.5654 20.1788 34.7954 17.6178 34.7954 14.877C34.7954 6.96432 41.2099 0.549805 49.1226 0.549805Z" fill="white"/>
<path d="M55.6542 21.5163L59.2561 17.8453L55.6542 14.1743L54.2719 15.5794L55.5374 16.8558H47.1753V18.8348H55.5374L54.2719 20.1112L55.6542 21.5163Z" fill="#E0499B"/>
<path d="M43.9729 14.1747L42.7074 12.8983H51.0695V10.9193H42.7074L43.9729 9.64286L42.5906 8.23779L38.9888 11.9088L42.5906 15.5798L43.9729 14.1747Z" fill="#E0499B"/>
<defs>
<linearGradient id="paint0_linear_1248_23260" x1="11.0329" y1="25.1858" x2="49.2971" y2="62.4016" gradientUnits="userSpaceOnUse">
<stop stop-color="#E0499B"/>
<stop offset="1" stop-color="#FDF41B"/>
</linearGradient>
<linearGradient id="paint1_linear_1248_23260" x1="3.6948" y1="21.5166" x2="60.2737" y2="55.6913" gradientUnits="userSpaceOnUse">
<stop stop-color="#E0499B"/>
<stop offset="1" stop-color="#FDF41B"/>
</linearGradient>
<linearGradient id="paint2_linear_1248_23260" x1="12.0815" y1="24.1377" x2="54.446" y2="54.6035" gradientUnits="userSpaceOnUse">
<stop stop-color="#E0499B"/>
<stop offset="1" stop-color="#FDF41B"/>
</linearGradient>
</defs>
</svg>
