<svg width="16" height="16" viewBox="0 0 16 16" fill="none" xmlns="http://www.w3.org/2000/svg">
<path d="M8.02709 4.839C9.78951 4.855 11.1805 6.27832 11.1556 8.0389C11.1305 9.80012 9.69405 11.1895 7.93863 11.1505C6.20313 11.1121 4.84219 9.71948 4.84669 7.98706C4.85119 6.22712 6.26908 4.823 8.02709 4.839Z" fill="#C74AE3"/>
<path d="M12.1261 14.7319C9.37288 16.9475 4.45318 16.1546 1.90491 13.1729C-0.898226 9.89301 -0.570899 4.97221 2.64403 2.05838C5.81982 -0.819605 10.7331 -0.660891 13.7284 2.41677C16.6359 5.40419 16.7647 10.3608 14.0435 13.1582C13.4082 12.4932 12.7722 11.827 12.1056 11.1294C13.1373 9.68822 13.4569 8.03899 12.8402 6.26817C11.9192 3.62441 9.00213 2.22926 6.34179 3.13035C3.71287 4.02056 2.27387 6.84863 3.09484 9.51094C3.92481 12.2027 6.74016 13.7316 9.44213 12.9022C9.98 12.7371 10.2785 12.8337 10.6263 13.2337C11.0861 13.7636 11.6182 14.2308 12.1261 14.7319Z" fill="#00E8B5"/>
</svg>
