<svg width="254" height="254" viewBox="0 0 254 254" fill="none" xmlns="http://www.w3.org/2000/svg">
<path d="M127 254C197.14 254 254 197.14 254 127C254 56.8598 197.14 0 127 0C56.8598 0 0 56.8598 0 127C0 197.14 56.8598 254 127 254Z" fill="url(#paint0_linear_1060_28499)"/>
<path d="M66.8803 163.769C67.9721 162.686 69.4473 162.078 70.9849 162.078H213.196C213.775 162.07 214.343 162.235 214.828 162.553C215.312 162.871 215.69 163.326 215.912 163.861C216.135 164.396 216.193 164.985 216.077 165.552C215.962 166.12 215.679 166.64 215.265 167.045L187.189 195.122C186.092 196.222 184.603 196.843 183.05 196.846H40.8388C40.26 196.845 39.6945 196.672 39.2137 196.35C38.7328 196.028 38.3582 195.57 38.1368 195.036C37.9155 194.501 37.8575 193.912 37.97 193.345C38.0825 192.777 38.3607 192.255 38.7693 191.845L66.8803 163.769Z" fill="white"/>
<path d="M66.8803 58.8779C67.9783 57.8047 69.4495 57.1988 70.9849 57.1878H213.196C213.775 57.1794 214.343 57.3447 214.828 57.6625C215.312 57.9803 215.69 58.4359 215.912 58.9705C216.135 59.5051 216.193 60.0943 216.077 60.6618C215.962 61.2294 215.679 61.7494 215.265 62.1547L187.189 90.2313C186.092 91.3318 184.603 91.9521 183.05 91.9559H40.8388C40.26 91.9545 39.6945 91.7817 39.2137 91.4595C38.7328 91.1372 38.3582 90.6799 38.1368 90.1451C37.9155 89.6102 37.8575 89.0218 37.97 88.4541C38.0825 87.8863 38.3607 87.3645 38.7693 86.9545L66.8803 58.8779Z" fill="white"/>
<path d="M187.189 110.996C186.092 109.895 184.603 109.275 183.05 109.271H40.8388C40.26 109.272 39.6945 109.445 39.2137 109.767C38.7328 110.09 38.3582 110.547 38.1368 111.082C37.9155 111.617 37.8575 112.205 37.97 112.773C38.0825 113.341 38.3607 113.862 38.7693 114.272L66.8803 142.349C67.9721 143.432 69.4473 144.039 70.9849 144.039H213.196C213.775 144.047 214.343 143.882 214.828 143.564C215.312 143.247 215.69 142.791 215.912 142.256C216.135 141.722 216.193 141.133 216.077 140.565C215.962 139.997 215.679 139.477 215.265 139.072L187.189 110.996Z" fill="white"/>
<defs>
<linearGradient id="paint0_linear_1060_28499" x1="238.341" y1="13.4864" x2="31.8707" y2="224.026" gradientUnits="userSpaceOnUse">
<stop stop-color="#00FFA3"/>
<stop offset="1" stop-color="#DC1FFF"/>
</linearGradient>
</defs>
</svg>
