<svg width="32" height="32" viewBox="0 0 32 32" fill="none" xmlns="http://www.w3.org/2000/svg">
<path d="M32 16C32 7.16344 24.8366 0 16 0C7.16344 0 0 7.16344 0 16C0 24.8366 7.16344 32 16 32C24.8366 32 32 24.8366 32 16Z" fill="white"/>
<path d="M11.805 31.2899C14.6259 32.2362 17.6777 32.2367 20.4989 31.2913C20.3961 31.3244 20.2868 31.3326 20.1802 31.3151C20.0736 31.2977 19.9726 31.255 19.8857 31.1908C19.7987 31.1265 19.7283 31.0425 19.6801 30.9456C19.632 30.8487 19.6075 30.7417 19.6088 30.6334C19.6088 30.1654 19.6267 28.6766 19.6267 26.8251C19.6638 26.356 19.5997 25.8844 19.4387 25.4423C19.2777 25.0002 19.0236 24.5981 18.6938 24.2631C21.7691 23.9169 24.9993 22.7397 24.9993 17.4247C25.0216 16.048 24.5143 14.7155 23.5826 13.7035C24.0051 12.5073 23.9556 11.1946 23.4443 10.0337C23.4443 10.0337 22.2861 9.65282 19.6433 11.4531C17.3817 10.8299 14.994 10.8299 12.7324 11.4531C10.0883 9.66944 8.93139 10.0323 8.93139 10.0323C8.41995 11.1932 8.37051 12.506 8.79317 13.7022C7.86409 14.7158 7.3572 16.0472 7.37643 17.4233C7.37643 22.7204 10.59 23.9155 13.6654 24.2617C13.1567 24.7519 12.8444 25.4098 12.7835 26.1133C12.4451 26.3035 12.0725 26.425 11.6871 26.4708C11.3017 26.5167 10.9111 26.486 10.5376 26.3805C10.1641 26.2751 9.81494 26.0969 9.51017 25.8562C9.20539 25.6155 8.95095 25.317 8.76138 24.9777L8.75862 24.9708C8.54428 24.5803 8.23915 24.2475 7.86909 24.0004C7.49903 23.7533 7.07495 23.5992 6.63282 23.5513C5.47593 23.5693 6.16702 24.2091 6.65078 24.4694C7.27415 24.9957 7.76068 25.6673 8.06752 26.4249C8.34396 27.2045 9.24238 28.6933 12.7144 28.0521C12.7144 29.2126 12.7324 30.3025 12.7324 30.6321C12.7324 30.9907 12.4767 31.3951 11.8063 31.2899H11.805Z" fill="#1C1C1C"/>
</svg>
