<svg width="35" height="26" viewBox="0 0 35 26" fill="none" xmlns="http://www.w3.org/2000/svg">
<g clip-path="url(#clip0_2824_335)">
<path d="M7.95457 25.8711V12.5464L3.76072 8.76589L0 6.66797V23.5196C0 24.8207 1.06982 25.8711 2.38643 25.8711H7.95457Z" fill="white"/>
<path d="M27.0454 25.8729H32.6136C33.9341 25.8729 35 24.8186 35 23.5214V6.66992L30.7404 9.07283L27.0454 12.5482V25.8729Z" fill="white"/>
<path d="M7.95445 12.5467L7.38379 7.3404L7.95445 2.35742L17.4999 9.41164L27.0453 2.35742L27.6837 7.07137L27.0453 12.5467L17.4999 19.6009L7.95445 12.5467Z" fill="white"/>
<path d="M27.0454 2.35801V12.5473L35 6.66889V3.53367C35 0.625845 31.6312 -1.03182 29.2728 0.712062L27.0454 2.35801Z" fill="white"/>
<path d="M0 6.66895L3.65846 9.37268L7.95457 12.5474V2.35807L5.72715 0.712124C3.36465 -1.0319 0 0.625906 0 3.5336V6.66882V6.66895Z" fill="white"/>
</g>
<defs>
<clipPath id="clip0_2824_335">
<rect width="35" height="26" fill="white"/>
</clipPath>
</defs>
</svg>
