<svg width="32" height="32" viewBox="0 0 32 32" fill="none" xmlns="http://www.w3.org/2000/svg">
<g clip-path="url(#clip0_2824_331)">
<path d="M16 32C24.8366 32 32 24.8366 32 16C32 7.16344 24.8366 0 16 0C7.16344 0 0 7.16344 0 16C0 24.8366 7.16344 32 16 32Z" fill="white"/>
<path d="M26.2591 9.63486C25.5044 9.96975 24.6938 10.1961 23.8416 10.2979C24.7114 9.77704 25.3777 8.95167 25.6924 7.96934C24.8661 8.46009 23.9619 8.80557 23.0189 8.99079C22.2515 8.17281 21.1572 7.66211 19.9465 7.66211C17.6227 7.66211 15.738 9.54598 15.738 11.8712C15.738 12.2006 15.7751 12.522 15.8465 12.8306C12.3483 12.6548 9.24687 10.9791 7.17094 8.43293C6.80846 9.05479 6.60097 9.7778 6.60097 10.5492C6.60097 12.0093 7.34414 13.2976 8.47338 14.0522C7.80489 14.0315 7.15107 13.8511 6.56658 13.526V13.5792C6.56658 15.6187 8.01723 17.3193 9.94288 17.7061C9.58914 17.803 9.21791 17.8536 8.83386 17.8536C8.56232 17.8536 8.29887 17.8279 8.04152 17.7795C8.57715 19.4512 10.1316 20.668 11.973 20.7024C10.5324 21.8316 8.71726 22.5048 6.74582 22.5048C6.40626 22.5048 6.07066 22.4845 5.74121 22.4448C7.60422 23.6394 9.81624 24.3368 12.1933 24.3368C19.935 24.3368 24.169 17.9231 24.169 12.3611C24.169 12.1785 24.165 11.9972 24.1562 11.8166C24.9811 11.22 25.6932 10.4812 26.2591 9.63486Z" fill="#1C1C1C"/>
</g>
<defs>
<clipPath id="clip0_2824_331">
<rect width="32" height="32" fill="white"/>
</clipPath>
</defs>
</svg>
